<?xml version="1.0" encoding="iso-8859-1"?>
<!-- Generator: Adobe Illustrator 19.0.0, SVG Export Plug-In . SVG Version: 6.00 Build 0)  -->
<svg version="1.1" id="Capa_1" xmlns="http://www.w3.org/2000/svg" xmlns:xlink="http://www.w3.org/1999/xlink" x="0px" y="0px"
	 viewBox="0 0 297 297" style="enable-background:new 0 0 297 297;" xml:space="preserve">
<g>
	<path d="M281.263,63.759c2.854-2.855,3.707-7.147,2.163-10.877c-1.544-3.729-5.183-6.161-9.22-6.161H126.35
		C121.415,19.955,98.092,0,70.071,0C38.499,0,12.814,25.685,12.814,57.256c0,31.572,25.685,57.257,57.257,57.257
		c8.931,0,17.606-2.057,25.486-5.987l60.489,60.489V277.04h-42.365c-5.512,0-9.98,4.469-9.98,9.98c0,5.512,4.469,9.98,9.98,9.98
		h104.69c5.512,0,9.98-4.469,9.98-9.98c0-5.512-4.469-9.98-9.98-9.98h-42.364V169.016L281.263,63.759z M166.027,150.767
		L81.942,66.682h168.17L166.027,150.767z M70.071,94.553c-20.566,0-37.297-16.731-37.297-37.297S49.506,19.96,70.071,19.96
		c16.948,0,31.259,11.204,35.791,26.761H57.848c-4.037,0-7.676,2.432-9.221,6.161c-1.545,3.73-0.69,8.022,2.164,10.877
		l29.384,29.384C76.912,94.06,73.524,94.553,70.071,94.553z"/>
	<path d="M177.9,121.424c-7.744,6.11-17.473,6.688-21.732,1.291s-1.434-14.726,6.31-20.836s17.473-6.688,21.732-1.291
		S185.644,115.314,177.9,121.424z"/>
</g>
<g>
</g>
<g>
</g>
<g>
</g>
<g>
</g>
<g>
</g>
<g>
</g>
<g>
</g>
<g>
</g>
<g>
</g>
<g>
</g>
<g>
</g>
<g>
</g>
<g>
</g>
<g>
</g>
<g>
</g>
</svg>
